<?xml version="1.0" encoding="UTF-8" standalone="no"?>
<!DOCTYPE svg PUBLIC "-//W3C//DTD SVG 20010904//EN"
              "http://www.w3.org/TR/2001/REC-SVG-20010904/DTD/svg10.dtd">

<svg xmlns="http://www.w3.org/2000/svg"
     width="59.9441mm" height="69.0881mm"
     viewBox="0 0 708 816">
  <path id="Selection #1"
        fill="none" stroke="black" stroke-width="1"
        d="M 129.00,197.00
           C 129.00,197.00 139.79,175.04 139.79,175.04
             139.79,175.04 144.80,167.91 144.80,167.91
             144.80,167.91 150.25,157.00 150.25,157.00
             151.85,153.79 156.75,142.56 159.39,141.11
             161.56,139.92 165.72,141.11 168.00,141.74
             173.95,143.39 186.57,147.36 186.50,155.00
             186.49,157.14 184.11,161.86 183.14,164.00
             183.14,164.00 172.00,186.00 172.00,186.00
             172.00,186.00 174.00,186.00 174.00,186.00
             174.00,186.00 161.00,212.00 161.00,212.00
             161.00,212.00 151.00,208.00 151.00,208.00
             151.00,208.00 153.76,219.83 153.76,219.83
             154.64,221.34 161.67,228.32 164.10,233.04
             168.48,241.54 175.24,258.72 178.33,268.00
             179.85,272.57 182.93,287.80 187.13,289.36
             189.36,290.19 193.69,289.10 196.00,288.53
             196.00,288.53 213.00,284.44 213.00,284.44
             224.49,282.64 242.86,285.00 255.00,285.00
             255.00,285.00 255.00,274.00 255.00,274.00
             255.08,258.88 267.03,255.72 280.00,256.01
             287.79,256.19 290.96,258.69 296.00,258.87
             298.27,258.95 316.81,255.66 318.94,254.85
             326.29,252.07 320.29,244.32 325.31,241.56
             329.26,239.39 337.40,241.27 339.98,237.57
             340.78,236.42 341.47,231.83 342.00,230.00
             337.08,231.19 326.06,230.41 323.02,225.70
             321.52,223.37 321.42,208.75 323.02,206.51
             324.40,204.58 326.86,204.36 329.00,204.00
             329.00,204.00 329.58,173.00 329.58,173.00
             330.17,168.50 329.05,165.65 333.00,163.00
             333.00,163.00 336.00,179.00 336.00,179.00
             339.68,159.71 366.22,155.45 381.00,164.48
             387.96,168.73 390.19,173.81 393.00,181.00
             393.00,175.29 391.62,166.56 397.00,163.00
             397.00,163.00 398.00,176.00 398.00,176.00
             398.06,181.60 397.94,196.04 399.31,200.89
             400.93,206.59 406.04,203.17 405.98,213.00
             405.97,215.22 405.15,224.81 404.01,226.28
             401.03,230.11 390.45,231.25 386.00,230.00
             386.00,230.00 387.00,240.00 387.00,240.00
             390.86,240.61 394.81,241.57 397.73,244.39
             401.94,248.47 399.77,252.27 408.00,253.70
             408.00,253.70 423.00,255.42 423.00,255.42
             425.30,255.74 431.03,256.85 433.00,256.48
             436.69,255.79 443.62,248.86 455.00,252.63
             463.50,255.45 468.40,264.67 474.00,265.40
             474.00,265.40 493.00,263.42 493.00,263.42
             493.00,263.42 511.00,261.00 511.00,261.00
             511.00,261.00 534.00,255.44 534.00,255.44
             534.00,255.44 541.00,254.89 541.00,254.89
             547.32,254.21 549.80,250.21 557.00,251.69
             566.05,253.56 570.40,259.99 569.66,269.00
             569.66,269.00 569.66,276.00 569.66,276.00
             569.66,276.00 575.98,298.00 575.98,298.00
             575.98,298.00 581.23,321.91 581.23,321.91
             582.56,327.45 584.23,327.56 584.66,337.00
             584.66,337.00 581.00,352.00 581.00,352.00
             588.22,355.82 588.89,365.31 582.79,370.57
             580.00,372.97 577.44,372.91 574.00,373.00
             574.00,373.00 583.00,381.00 583.00,381.00
             583.00,381.00 572.37,397.00 572.37,397.00
             572.37,397.00 566.83,403.23 566.83,403.23
             566.83,403.23 564.00,404.00 564.00,404.00
             561.49,409.90 554.90,417.63 550.87,423.00
             549.29,425.10 546.16,429.82 543.83,430.79
             541.32,431.85 538.27,430.28 536.00,429.22
             530.45,426.63 519.71,420.91 519.36,414.00
             519.14,409.89 524.20,404.23 526.63,401.00
             526.63,401.00 536.84,387.28 536.84,387.28
             538.29,384.89 538.03,384.03 538.97,381.96
             540.23,379.19 543.92,374.61 545.87,372.00
             547.49,369.84 552.13,363.07 554.30,362.16
             557.58,360.80 561.74,365.06 563.97,367.00
             563.97,367.00 563.97,356.00 563.97,356.00
             563.36,352.86 557.30,345.58 555.71,340.00
             555.71,340.00 554.11,332.00 554.11,332.00
             550.27,315.31 546.16,298.24 546.00,281.00
             546.00,281.00 528.00,288.48 528.00,288.48
             520.81,290.85 508.63,291.99 501.00,292.00
             498.18,292.00 491.63,291.56 489.41,293.02
             486.78,294.76 486.59,298.65 482.67,302.82
             476.15,309.75 464.02,310.98 456.00,306.01
             453.03,304.17 450.47,301.45 448.00,299.00
             447.62,307.32 445.06,314.13 442.72,322.00
             439.96,331.31 439.95,335.51 433.96,344.00
             427.44,353.23 420.39,355.37 416.00,365.00
             411.35,364.39 404.67,364.62 401.00,362.00
             401.00,362.00 389.00,375.00 389.00,375.00
             393.12,375.77 401.58,379.02 404.15,382.39
             406.65,385.67 406.99,394.84 407.00,399.00
             407.00,399.00 406.42,429.00 406.42,429.00
             405.79,433.41 405.81,437.19 402.70,440.71
             400.48,443.23 394.10,448.20 391.00,449.58
             386.87,451.43 385.33,450.19 382.00,451.44
             375.41,453.91 371.31,458.57 369.00,465.00
             382.00,465.12 389.48,470.11 401.00,474.31
             401.00,474.31 416.00,479.00 416.00,479.00
             427.56,482.82 442.65,488.95 453.00,495.20
             464.37,502.07 470.48,506.08 475.00,519.00
             475.00,519.00 501.00,505.00 501.00,505.00
             501.00,505.00 502.55,510.00 502.55,510.00
             502.55,510.00 497.00,530.00 497.00,530.00
             499.47,528.90 505.44,525.25 507.77,525.82
             512.52,526.98 509.96,534.09 509.00,537.00
             504.87,549.59 503.41,555.90 493.91,566.00
             479.70,581.09 472.95,578.34 458.00,586.87
             458.00,586.87 445.00,595.85 445.00,595.85
             432.12,605.20 427.28,607.70 413.00,614.00
             417.49,614.63 427.35,616.60 430.57,619.65
             432.93,621.87 432.90,624.45 434.72,626.73
             436.70,629.20 439.28,629.59 441.15,632.22
             443.46,635.48 443.00,641.12 443.00,645.00
             443.00,645.00 396.00,645.00 396.00,645.00
             396.00,645.00 376.00,644.00 376.00,644.00
             376.00,644.00 346.00,644.00 346.00,644.00
             346.00,644.00 346.00,634.00 346.00,634.00
             346.00,634.00 332.00,634.00 332.00,634.00
             332.00,625.15 332.32,617.82 339.18,611.14
             342.48,607.93 344.39,608.63 348.00,605.00
             345.36,605.00 339.52,605.39 337.43,603.98
             332.85,600.88 332.97,584.29 336.72,580.60
             339.15,578.22 347.56,579.01 351.00,579.00
             352.94,579.00 356.14,579.12 357.90,578.40
             365.64,575.24 364.15,557.45 368.70,553.99
             368.70,553.99 386.00,549.58 386.00,549.58
             400.73,544.04 418.99,537.50 432.00,529.00
             423.28,527.82 412.07,525.02 404.00,521.57
             404.00,521.57 394.00,516.92 394.00,516.92
             394.00,516.92 371.00,508.99 371.00,508.99
             358.53,503.86 356.97,502.16 346.00,496.10
             337.71,491.53 330.32,496.52 325.65,491.57
             323.34,489.13 323.23,486.11 322.85,483.00
             321.90,475.39 322.00,469.59 322.00,462.00
             316.68,462.00 302.21,462.87 298.27,460.07
             294.85,457.63 293.14,449.05 292.13,445.00
             289.09,432.91 285.02,414.25 285.16,402.00
             285.16,402.00 285.16,392.00 285.16,392.00
             286.00,388.17 289.88,378.15 293.21,376.17
             295.42,374.86 298.51,375.02 301.00,375.00
             301.00,371.39 301.45,365.15 299.83,362.04
             297.49,357.57 291.95,356.04 287.93,346.00
             284.80,338.17 286.98,332.00 287.00,324.00
             278.89,326.96 262.60,327.96 257.01,319.81
             255.45,317.55 255.28,315.61 255.00,313.00
             255.00,313.00 233.00,313.00 233.00,313.00
             223.09,313.02 213.73,315.34 204.00,316.72
             204.00,316.72 195.00,317.64 195.00,317.64
             195.00,317.64 189.00,317.64 189.00,317.64
             189.00,317.64 180.00,319.80 180.00,319.80
             172.87,320.50 165.80,315.87 163.65,309.00
             161.75,302.94 165.10,303.73 159.75,293.00
             159.75,293.00 148.31,271.00 148.31,271.00
             148.31,271.00 142.23,256.04 142.23,256.04
             139.67,250.49 137.06,246.38 135.80,240.04
             134.90,235.50 137.37,234.32 136.84,230.03
             136.27,225.45 132.51,224.49 130.31,220.00
             125.81,210.78 133.57,206.14 140.00,202.00
             140.00,202.00 129.00,197.00 129.00,197.00 Z" />
</svg>
